<?xml version="1.0" encoding="UTF-8"?>
<svg width="2218px" height="2070px" viewBox="0 0 2218 2070" version="1.1" xmlns="http://www.w3.org/2000/svg" xmlns:xlink="http://www.w3.org/1999/xlink">
    <!-- Generator: Sketch 41.1 (35376) - http://www.bohemiancoding.com/sketch -->
    <title>Group 2</title>
    <desc>Created with Sketch.</desc>
    <defs></defs>
    <g id="Page-1" stroke="none" stroke-width="1" fill="none" fill-rule="evenodd">
        <g id="resultado-não-encontrado" transform="translate(-424.000000, -1616.000000)">
            <g id="Camada_x0020_1">
                <g id="Group-2" transform="translate(424.000000, 1616.000000)">
                    <path d="M326.327266,1350.89094 C339.824208,1350.89094 350.501094,1348.19159 358.358242,1342.79281 C366.215391,1337.39404 370.143906,1327.6571 370.143906,1313.58172 C370.143906,1298.44586 364.648805,1288.1305 353.658438,1282.63531 C347.777627,1279.74311 339.920596,1278.29703 330.087109,1278.29703 L259.806953,1278.29703 L259.806953,1350.89094 L326.327266,1350.89094 Z M231.029688,1253.56883 L329.364063,1253.56883 C345.560393,1253.56883 358.912526,1255.93076 369.420859,1260.65469 C389.377053,1269.71692 399.355,1286.44324 399.355,1310.83414 C399.355,1323.55983 396.727956,1333.9716 391.473789,1342.06977 C386.219622,1350.16793 378.868719,1356.67529 369.420859,1361.59203 C377.711838,1364.96627 383.954081,1369.40091 388.147773,1374.89609 C392.341466,1380.39128 394.679294,1389.30877 395.161328,1401.64883 L396.173594,1430.13688 C396.462814,1438.23504 397.137651,1444.26037 398.198125,1448.21305 C399.933446,1454.96152 403.018415,1459.29976 407.453125,1461.22789 L407.453125,1466 L372.168437,1466 C371.20437,1464.16827 370.433128,1461.80634 369.854688,1458.91414 C369.276247,1456.02194 368.794221,1450.43043 368.408594,1442.13945 L366.673281,1406.71016 C365.998434,1392.82759 360.840751,1383.52448 351.200078,1378.80055 C345.704894,1376.19757 337.076621,1374.89609 325.315,1374.89609 L259.806953,1374.89609 L259.806953,1466 L231.029688,1466 L231.029688,1253.56883 Z M444.183906,1253.56883 L599.060547,1253.56883 L599.060547,1279.59852 L472.238125,1279.59852 L472.238125,1344.0943 L589.516328,1344.0943 L589.516328,1368.67789 L472.238125,1368.67789 L472.238125,1440.69336 L601.229687,1440.69336 L601.229687,1466 L444.183906,1466 L444.183906,1253.56883 Z M657.771953,1397.45516 C658.4468,1409.506 661.290756,1419.29113 666.303906,1426.81086 C675.848173,1440.88624 692.670895,1447.92383 716.772578,1447.92383 C727.570132,1447.92383 737.403471,1446.38134 746.272891,1443.29633 C763.433289,1437.31911 772.013359,1426.61812 772.013359,1411.19305 C772.013359,1399.62424 768.398161,1391.38159 761.167656,1386.46484 C753.840745,1381.64451 742.368516,1377.45088 726.750625,1373.88383 L697.973359,1367.37641 C679.174047,1363.13451 665.870117,1358.45885 658.061172,1353.3493 C644.564229,1344.47988 637.815859,1331.22415 637.815859,1313.58172 C637.815859,1294.49319 644.419621,1278.82733 657.627344,1266.58367 C670.835066,1254.34002 689.537692,1248.21828 713.735781,1248.21828 C736.005736,1248.21828 754.925274,1253.59288 770.494961,1264.34223 C786.064648,1275.09158 793.849375,1292.27582 793.849375,1315.89547 L766.807422,1315.89547 C765.361321,1304.51947 762.276352,1295.7948 757.552422,1289.72117 C748.779409,1278.6344 733.884793,1273.09109 712.868125,1273.09109 C695.90054,1273.09109 683.705271,1276.65809 676.281953,1283.79219 C668.858635,1290.92629 665.147031,1299.21714 665.147031,1308.665 C665.147031,1319.07693 669.485269,1326.69294 678.161875,1331.51328 C683.849872,1334.5983 696.719978,1338.45451 716.772578,1343.08203 L746.562109,1349.87867 C760.926712,1353.1565 772.01332,1357.63935 779.822266,1363.32734 C793.319208,1373.25724 800.067578,1387.66983 800.067578,1406.56555 C800.067578,1430.08879 791.511609,1446.91151 774.399414,1457.03422 C757.287219,1467.15693 737.403629,1472.2182 714.748047,1472.2182 C688.332602,1472.2182 667.653668,1465.46983 652.710625,1451.97289 C637.767582,1438.57235 630.44078,1420.39996 630.73,1397.45516 L657.771953,1397.45516 Z M867.744766,1253.56883 L867.744766,1384.87414 C867.744766,1400.29922 870.636924,1413.12112 876.421328,1423.34023 C885.001527,1438.76531 899.46232,1446.47773 919.804141,1446.47773 C944.195044,1446.47773 960.776753,1438.13868 969.549766,1421.46031 C974.273695,1412.39808 976.635625,1400.20281 976.635625,1384.87414 L976.635625,1253.56883 L1005.84672,1253.56883 L1005.84672,1372.87156 C1005.84672,1398.99779 1002.32793,1419.09829 995.290234,1433.17367 C982.371732,1458.81786 957.981195,1471.63977 922.117891,1471.63977 C886.254586,1471.63977 861.912252,1458.81786 849.090156,1433.17367 C842.052465,1419.09829 838.533672,1398.99779 838.533672,1372.87156 L838.533672,1253.56883 L867.744766,1253.56883 Z M1050.38641,1253.56883 L1079.16367,1253.56883 L1079.16367,1440.69336 L1186.75305,1440.69336 L1186.75305,1466 L1050.38641,1466 L1050.38641,1253.56883 Z M1347.84789,1253.56883 L1347.84789,1278.87547 L1276.26625,1278.87547 L1276.26625,1466 L1247.05516,1466 L1247.05516,1278.87547 L1175.47352,1278.87547 L1175.47352,1253.56883 L1347.84789,1253.56883 Z M1461.36625,1378.94516 L1429.11836,1285.09367 L1394.84594,1378.94516 L1461.36625,1378.94516 Z M1414.07898,1253.56883 L1446.61609,1253.56883 L1523.69289,1466 L1492.16805,1466 L1470.62125,1402.37188 L1386.6032,1402.37188 L1363.61031,1466 L1334.11,1466 L1414.07898,1253.56883 Z M1631.42688,1441.41641 C1641.16395,1441.41641 1649.16559,1440.40415 1655.43203,1438.37961 C1666.61521,1434.61975 1675.77371,1427.38935 1682.90781,1416.6882 C1688.59581,1408.108 1692.69303,1397.1178 1695.19961,1383.71727 C1696.64571,1375.71551 1697.36875,1368.2923 1697.36875,1361.44742 C1697.36875,1335.12838 1692.13876,1314.69046 1681.67863,1300.13305 C1671.2185,1285.57563 1654.37168,1278.29703 1631.13766,1278.29703 L1580.09055,1278.29703 L1580.09055,1441.41641 L1631.42688,1441.41641 Z M1551.16867,1253.56883 L1637.21125,1253.56883 C1666.42249,1253.56883 1689.07773,1263.9324 1705.17766,1284.65984 C1719.54226,1303.36275 1726.72445,1327.31946 1726.72445,1356.5307 C1726.72445,1379.08988 1722.48262,1399.4796 1713.99883,1417.70047 C1699.05578,1449.90032 1673.36378,1466 1636.92203,1466 L1551.16867,1466 L1551.16867,1253.56883 Z M1938.7218,1283.9368 C1952.79718,1302.73611 1959.83477,1326.78923 1959.83477,1356.09688 C1959.83477,1387.81469 1951.78492,1414.18154 1935.685,1435.1982 C1916.78928,1459.87833 1889.844,1472.2182 1854.84836,1472.2182 C1822.16648,1472.2182 1796.47447,1461.42081 1777.77156,1439.8257 C1761.0932,1419.00185 1752.75414,1392.68321 1752.75414,1360.86898 C1752.75414,1332.13978 1759.88813,1307.55643 1774.15633,1287.1182 C1792.47361,1260.89557 1819.56349,1247.78445 1855.4268,1247.78445 C1892.92902,1247.78445 1920.69374,1259.83511 1938.7218,1283.9368 Z M1913.34285,1419.21887 C1924.67064,1401.0462 1930.33445,1380.15035 1930.33445,1356.5307 C1930.33445,1331.56136 1923.803,1311.46086 1910.73988,1296.22859 C1897.67677,1280.99633 1879.81769,1273.38031 1857.16211,1273.38031 C1835.18137,1273.38031 1817.24999,1280.92403 1803.36742,1296.01168 C1789.48485,1311.09933 1782.54367,1333.34485 1782.54367,1362.74891 C1782.54367,1386.27215 1788.4967,1406.10754 1800.40293,1422.25566 C1812.30916,1438.40379 1831.61432,1446.47773 1858.31898,1446.47773 C1883.67395,1446.47773 1902.01506,1437.39154 1913.34285,1419.21887 Z M1113,216 C1214,270 1396,388 1509,457 C1571,494 2066,808 2115,810 C2217,813 2257,686 2169,627 L1875,447 C1842,427 1803,407 1773,385 C1758,305 1782,178 1769,103 C1761,56 1708,68 1660,68 C1615,68 1558,64 1520,74 C1501,111 1508,169 1507,220 C1480,213 1224,52 1178,23 C1095,-28 1050,18 988,56 L168,555 C124,582 37,623 14,664 C-29,738 38,821 117,809 C157,802 399,645 451,614 C564,547 667,481 779,414 C835,381 1074,229 1113,216 Z M17,1994 C17,1952.02636 51.02927,1918 92.9962283,1918 L2124.00377,1918 C2165.97533,1918 2200,1952.01713 2200,1994 C2200,2035.97364 2165.97073,2070 2124.00377,2070 L92.9962283,2070 C51.0246704,2070 17,2035.98287 17,1994 Z" id="Combined-Shape" fill="#F59D37"></path>
                    <path d="M221.340117,1574.9639 L242.942217,1574.9639 L311.149697,1684.35325 L311.149697,1574.9639 L328.523301,1574.9639 L328.523301,1710 L308.024287,1710 L238.805645,1600.70257 L238.805645,1710 L221.340117,1710 L221.340117,1574.9639 Z M426.606025,1654.66186 L406.107012,1595.00329 L384.321064,1654.66186 L426.606025,1654.66186 Z M396.546934,1574.9639 L417.229795,1574.9639 L466.225195,1710 L446.185801,1710 L432.48915,1669.55352 L379.081406,1669.55352 L364.465518,1710 L345.713057,1710 L396.546934,1574.9639 Z M412.082061,1546.83521 C413.797981,1547.5706 415.36067,1548.15278 416.770176,1548.58176 C418.179682,1549.01074 419.619807,1549.22522 421.090596,1549.22522 C424.522436,1549.22522 426.973713,1548.15279 428.444502,1546.00789 C429.241179,1544.84352 429.792717,1543.09698 430.099131,1540.76823 L439.751133,1540.76823 C438.464193,1548.55116 435.997595,1553.91333 432.351265,1556.8549 C428.704935,1559.79648 424.706288,1561.26725 420.355205,1561.26725 C419.006982,1561.26725 417.291088,1561.02212 415.207471,1560.53186 C413.123854,1560.04159 411.285395,1559.49006 409.692041,1558.87723 L404.820078,1557.13067 C401.939784,1556.08887 399.59575,1555.30752 397.787905,1554.78662 C395.980061,1554.26571 394.218205,1554.00526 392.502285,1554.00526 C390.357385,1554.00526 388.595529,1554.71001 387.216665,1556.11951 C385.837801,1557.52902 384.903251,1559.67389 384.412988,1562.55418 L375.404453,1562.55418 C376.20113,1557.71283 377.518692,1553.76015 379.357178,1550.69601 C382.850301,1545.05798 388.028625,1542.23901 394.892305,1542.23901 C396.975922,1542.23901 399.289315,1542.54542 401.832554,1543.15825 C404.375792,1543.77108 407.79226,1544.99672 412.082061,1546.83521 Z M594.09124,1594.2679 C603.038538,1606.21806 607.512119,1621.5079 607.512119,1640.13789 C607.512119,1660.29995 602.395077,1677.06056 592.16084,1690.42022 C580.1494,1706.10864 563.021098,1713.95272 540.77542,1713.95272 C520.000531,1713.95272 503.668894,1707.08915 491.78002,1693.36179 C481.178085,1680.12469 475.877197,1663.39472 475.877197,1643.17138 C475.877197,1624.90909 480.412061,1609.28219 489.481924,1596.29022 C501.125667,1579.62129 518.345892,1571.28694 541.143115,1571.28694 C564.982147,1571.28694 582.631346,1578.94719 594.09124,1594.2679 Z M577.958608,1680.26264 C585.159344,1668.71082 588.759658,1655.42796 588.759658,1640.41366 C588.759658,1624.5414 584.607807,1611.76412 576.303979,1602.08143 C568.000152,1592.39873 556.647673,1587.55746 542.246201,1587.55746 C528.273709,1587.55746 516.875269,1592.35277 508.050537,1601.94354 C499.225805,1611.53431 494.813506,1625.67511 494.813506,1644.36639 C494.813506,1659.3194 498.597666,1671.92816 506.166099,1682.19304 C513.734532,1692.45792 526.00624,1697.59028 542.981592,1697.59028 C559.098984,1697.59028 570.757873,1691.81446 577.958608,1680.26264 Z M683.349277,1574.9639 L781.799697,1574.9639 L781.799697,1591.51019 L701.1825,1591.51019 L701.1825,1632.50821 L775.732725,1632.50821 L775.732725,1648.13526 L701.1825,1648.13526 L701.1825,1693.91333 L783.178555,1693.91333 L783.178555,1710 L683.349277,1710 L683.349277,1574.9639 Z M807.170674,1574.9639 L828.772773,1574.9639 L896.980254,1684.35325 L896.980254,1574.9639 L914.353857,1574.9639 L914.353857,1710 L893.854844,1710 L824.636201,1600.70257 L824.636201,1710 L807.170674,1710 L807.170674,1574.9639 Z M1039.82988,1584.79975 C1049.26744,1593.80833 1054.50705,1604.04241 1055.54886,1615.5023 L1037.71563,1615.5023 C1035.6933,1606.80014 1031.66401,1599.90592 1025.62765,1594.81944 C1019.59129,1589.73297 1011.11906,1587.18977 1000.21071,1587.18977 C986.912333,1587.18977 976.172673,1591.86251 967.991411,1601.20815 C959.81015,1610.55379 955.71958,1624.87844 955.71958,1644.18254 C955.71958,1659.99352 959.411817,1672.81676 966.796401,1682.65266 C974.180986,1692.48856 985.196414,1697.40644 999.843018,1697.40644 C1013.32525,1697.40644 1023.58997,1692.22811 1030.6375,1681.87131 C1034.37575,1676.41713 1037.16408,1669.24715 1039.00257,1660.36113 L1056.83579,1660.36113 C1055.24244,1674.57876 1049.97219,1686.49809 1041.02489,1696.1195 C1030.30039,1707.70196 1015.83785,1713.49311 997.636846,1713.49311 C981.948434,1713.49311 968.772817,1708.74376 958.1096,1699.24491 C944.075825,1686.68193 937.059043,1667.28619 937.059043,1641.05713 C937.059043,1621.1402 942.32929,1604.80856 952.869941,1592.06173 C964.268553,1578.2118 979.987371,1571.28694 1000.02687,1571.28694 C1017.12478,1571.28694 1030.39232,1575.79117 1039.82988,1584.79975 Z M1190.30919,1594.2679 C1199.25649,1606.21806 1203.73007,1621.5079 1203.73007,1640.13789 C1203.73007,1660.29995 1198.61303,1677.06056 1188.37879,1690.42022 C1176.36735,1706.10864 1159.23905,1713.95272 1136.99337,1713.95272 C1116.21848,1713.95272 1099.88684,1707.08915 1087.99797,1693.36179 C1077.39603,1680.12469 1072.09515,1663.39472 1072.09515,1643.17138 C1072.09515,1624.90909 1076.63001,1609.28219 1085.69987,1596.29022 C1097.34362,1579.62129 1114.56384,1571.28694 1137.36106,1571.28694 C1161.2001,1571.28694 1178.84929,1578.94719 1190.30919,1594.2679 Z M1174.17656,1680.26264 C1181.37729,1668.71082 1184.97761,1655.42796 1184.97761,1640.41366 C1184.97761,1624.5414 1180.82576,1611.76412 1172.52193,1602.08143 C1164.2181,1592.39873 1152.86562,1587.55746 1138.46415,1587.55746 C1124.49166,1587.55746 1113.09322,1592.35277 1104.26849,1601.94354 C1095.44375,1611.53431 1091.03146,1625.67511 1091.03146,1644.36639 C1091.03146,1659.3194 1094.81561,1671.92816 1102.38405,1682.19304 C1109.95248,1692.45792 1122.22419,1697.59028 1139.19954,1697.59028 C1155.31693,1697.59028 1166.97582,1691.81446 1174.17656,1680.26264 Z M1225.51602,1574.9639 L1247.11812,1574.9639 L1315.3256,1684.35325 L1315.3256,1574.9639 L1332.6992,1574.9639 L1332.6992,1710 L1312.20019,1710 L1242.98154,1600.70257 L1242.98154,1710 L1225.51602,1710 L1225.51602,1574.9639 Z M1459.73793,1574.9639 L1459.73793,1591.05057 L1414.23563,1591.05057 L1414.23563,1710 L1395.66702,1710 L1395.66702,1591.05057 L1350.16473,1591.05057 L1350.16473,1574.9639 L1459.73793,1574.9639 Z M1539.25204,1636.82863 C1547.83164,1636.82863 1554.61862,1635.11274 1559.61317,1631.6809 C1564.60772,1628.24906 1567.10496,1622.05958 1567.10496,1613.11229 C1567.10496,1603.49088 1563.61189,1596.93371 1556.62564,1593.44059 C1552.88739,1591.6021 1547.89291,1590.68287 1541.64206,1590.68287 L1496.96708,1590.68287 L1496.96708,1636.82863 L1539.25204,1636.82863 Z M1478.67424,1574.9639 L1541.18244,1574.9639 C1551.47796,1574.9639 1559.96551,1576.4653 1566.64534,1579.46816 C1579.33089,1585.22875 1585.67357,1595.86117 1585.67357,1611.36573 C1585.67357,1619.45507 1584.00364,1626.07352 1580.66373,1631.22128 C1577.32381,1636.36904 1572.65106,1640.50557 1566.64534,1643.631 C1571.91567,1645.7759 1575.88367,1648.59487 1578.54948,1652.08799 C1581.21528,1655.58111 1582.70137,1661.24969 1583.00778,1669.0939 L1583.65125,1687.20289 C1583.8351,1692.35065 1584.26407,1696.18077 1584.93818,1698.69337 C1586.04128,1702.98317 1588.0023,1705.74086 1590.82131,1706.96651 L1590.82131,1710 L1568.39189,1710 C1567.77907,1708.83563 1567.28881,1707.33422 1566.92111,1705.49573 C1566.55342,1703.65725 1566.24701,1700.10289 1566.00187,1694.83257 L1564.89879,1672.31123 C1564.46981,1663.4865 1561.19123,1657.57279 1555.06294,1654.56993 C1551.56982,1652.91529 1546.08508,1652.08799 1538.60857,1652.08799 L1496.96708,1652.08799 L1496.96708,1710 L1478.67424,1710 L1478.67424,1574.9639 Z M1681.73397,1654.66186 L1661.23496,1595.00329 L1639.44901,1654.66186 L1681.73397,1654.66186 Z M1651.67488,1574.9639 L1672.35774,1574.9639 L1721.35314,1710 L1701.31375,1710 L1687.6171,1669.55352 L1634.20936,1669.55352 L1619.59347,1710 L1600.84101,1710 L1651.67488,1574.9639 Z M1789.8364,1694.37295 C1796.02597,1694.37295 1801.11237,1693.72949 1805.09575,1692.44255 C1812.20456,1690.05252 1818.02635,1685.45637 1822.56128,1678.65397 C1826.17697,1673.1998 1828.78145,1666.21366 1830.3748,1657.69534 C1831.29405,1652.60886 1831.75366,1647.89016 1831.75366,1643.53907 C1831.75366,1626.80885 1828.42912,1613.81708 1821.77993,1604.56337 C1815.13074,1595.30966 1804.42172,1590.68287 1789.65255,1590.68287 L1757.20344,1590.68287 L1757.20344,1694.37295 L1789.8364,1694.37295 Z M1738.81867,1574.9639 L1793.51335,1574.9639 C1812.08206,1574.9639 1826.48331,1581.5517 1836.71755,1594.72752 C1845.84869,1606.61639 1850.4142,1621.84496 1850.4142,1640.41366 C1850.4142,1654.75385 1847.71779,1667.71498 1842.3249,1679.29744 C1832.82606,1699.76592 1816.49442,1710 1793.3295,1710 L1738.81867,1710 L1738.81867,1574.9639 Z M1985.17453,1594.2679 C1994.12183,1606.21806 1998.59541,1621.5079 1998.59541,1640.13789 C1998.59541,1660.29995 1993.47837,1677.06056 1983.24413,1690.42022 C1971.23269,1706.10864 1954.10439,1713.95272 1931.85871,1713.95272 C1911.08382,1713.95272 1894.75219,1707.08915 1882.86331,1693.36179 C1872.26138,1680.12469 1866.96049,1663.39472 1866.96049,1643.17138 C1866.96049,1624.90909 1871.49535,1609.28219 1880.56521,1596.29022 C1892.20896,1579.62129 1909.42918,1571.28694 1932.22641,1571.28694 C1956.06544,1571.28694 1973.71464,1578.94719 1985.17453,1594.2679 Z M1969.0419,1680.26264 C1976.24264,1668.71082 1979.84295,1655.42796 1979.84295,1640.41366 C1979.84295,1624.5414 1975.6911,1611.76412 1967.38727,1602.08143 C1959.08344,1592.39873 1947.73096,1587.55746 1933.32949,1587.55746 C1919.357,1587.55746 1907.95856,1592.35277 1899.13383,1601.94354 C1890.3091,1611.53431 1885.8968,1625.67511 1885.8968,1644.36639 C1885.8968,1659.3194 1889.68096,1671.92816 1897.24939,1682.19304 C1904.81782,1692.45792 1917.08953,1697.59028 1934.06488,1697.59028 C1950.18227,1697.59028 1961.84116,1691.81446 1969.0419,1680.26264 Z" id="NÃO-ENCONTRADO" fill="#F79128"></path>
                    <path d="M315.985937,1094.37832 C326.926344,1094.37832 335.91684,1093.24097 342.957695,1090.96623 C355.522914,1086.74172 365.813241,1078.61777 373.828984,1066.59416 C380.219915,1056.9536 384.823482,1044.60521 387.639824,1029.54861 C389.264637,1020.55798 390.077031,1012.2174 390.077031,1004.52662 C390.077031,974.955028 384.200713,951.991351 372.4479,935.634902 C360.695088,919.278453 341.766302,911.100352 315.660977,911.100352 L258.305371,911.100352 L258.305371,1094.37832 L315.985937,1094.37832 Z M225.809277,883.316191 L322.485156,883.316191 C355.306375,883.316191 380.761394,894.960509 398.850977,918.249492 C414.990784,939.263738 423.060566,966.181066 423.060566,999.002285 C423.060566,1024.34937 418.29452,1047.25888 408.762285,1067.73152 C391.972553,1103.91069 363.105478,1122 322.160195,1122 L225.809277,1122 L225.809277,883.316191 Z M467.742695,883.316191 L641.759277,883.316191 L641.759277,912.562676 L499.263906,912.562676 L499.263906,985.028965 L631.035566,985.028965 L631.035566,1012.65064 L499.263906,1012.65064 L499.263906,1093.56592 L644.196484,1093.56592 L644.196484,1122 L467.742695,1122 L467.742695,883.316191 Z M707.726348,1044.98426 C708.484594,1058.52436 711.680011,1069.51877 717.312695,1077.96779 C728.03646,1093.78264 746.938165,1101.68994 774.018379,1101.68994 C786.150315,1101.68994 797.198876,1099.95683 807.164395,1096.49057 C826.445507,1089.77467 836.085918,1077.75124 836.085918,1060.4199 C836.085918,1047.4214 832.023947,1038.16011 823.899883,1032.63574 C815.667498,1027.2197 802.77751,1022.50781 785.229531,1018.49994 L752.895918,1011.18832 C731.773351,1006.4222 716.825298,1001.16872 708.051309,995.427715 C692.886389,985.462196 685.304043,970.568302 685.304043,950.745586 C685.304043,929.298057 692.72391,911.696182 707.563867,897.939434 C722.403824,884.182685 743.417755,877.304414 770.606289,877.304414 C795.628406,877.304414 816.886055,883.343211 834.379873,895.420986 C851.873691,907.498762 860.620469,926.806664 860.620469,953.345273 L830.236621,953.345273 C828.611808,940.563413 825.145593,930.760522 819.837871,923.936309 C809.980673,911.47941 793.245352,905.251055 769.631406,905.251055 C750.566936,905.251055 736.864553,909.258866 728.523848,917.274609 C720.183142,925.290353 716.012852,934.605806 716.012852,945.22125 C716.012852,956.919902 720.887217,965.477121 730.636094,970.893164 C737.027024,974.359431 751.487641,978.692201 774.018379,983.891602 L807.489355,991.528184 C823.629163,995.211093 836.085874,1000.24794 844.859863,1006.63887 C860.024783,1017.79592 867.607129,1033.98964 867.607129,1055.22053 C867.607129,1081.65082 857.993797,1100.55252 838.766846,1111.92621 C819.539894,1123.2999 797.199053,1128.98666 771.743652,1128.98666 C742.063738,1128.98666 718.829264,1121.40431 702.039531,1106.23939 C685.249799,1091.1828 677.017537,1070.76462 677.3425,1044.98426 L707.726348,1044.98426 Z M1079.48166,900.701602 C1096.16307,916.624767 1105.42437,934.714078 1107.26582,954.970078 L1075.74461,954.970078 C1072.17002,939.588517 1065.04803,927.402604 1054.37843,918.411973 C1043.70882,909.421342 1028.73369,904.926094 1009.45258,904.926094 C985.946953,904.926094 966.964008,913.185435 952.503174,929.704365 C938.04234,946.223295 930.812031,971.542915 930.812031,1005.66398 C930.812031,1033.61076 937.338265,1056.27656 950.390928,1073.66206 C963.443591,1091.04756 982.913972,1099.74018 1008.80266,1099.74018 C1032.63324,1099.74018 1050.77672,1090.5872 1063.23361,1072.28098 C1069.84119,1062.64042 1074.76971,1049.96707 1078.01934,1034.26055 L1109.54055,1034.26055 C1106.7242,1059.39099 1097.40875,1080.45908 1081.59391,1097.46545 C1062.63776,1117.93809 1037.07442,1128.17426 1004.90312,1128.17426 C977.172986,1128.17426 953.884352,1119.77952 935.036523,1102.98979 C910.231048,1080.78401 897.828496,1046.50097 897.828496,1000.13965 C897.828496,964.935371 907.14395,936.068296 925.775137,913.537559 C945.922816,889.057046 973.706698,876.816973 1009.12762,876.816973 C1039.34914,876.816973 1062.80025,884.778436 1079.48166,900.701602 Z M1183.9566,883.316191 L1183.9566,1030.84846 C1183.9566,1048.17979 1187.20618,1062.58625 1193.70543,1074.06826 C1203.34599,1091.3996 1219.59387,1100.06514 1242.44957,1100.06514 C1269.85475,1100.06514 1288.48565,1090.69552 1298.34285,1071.95602 C1303.65057,1061.77386 1306.30439,1048.07147 1306.30439,1030.84846 L1306.30439,883.316191 L1339.12545,883.316191 L1339.12545,1017.36258 C1339.12545,1046.71753 1335.1718,1069.30209 1327.26437,1085.11693 C1312.74938,1113.93028 1285.34462,1128.33674 1245.04926,1128.33674 C1204.7539,1128.33674 1177.40329,1113.93028 1162.99662,1085.11693 C1155.0892,1069.30209 1151.13555,1046.71753 1151.13555,1017.36258 L1151.13555,883.316191 L1183.9566,883.316191 Z M1389.16943,883.316191 L1421.50305,883.316191 L1421.50305,1093.56592 L1542.38852,1093.56592 L1542.38852,1122 L1389.16943,1122 L1389.16943,883.316191 Z M1577.32182,883.316191 L1684.72141,883.316191 C1705.95229,883.316191 1723.06673,889.300829 1736.06523,901.270283 C1749.06374,913.239738 1755.56289,930.056298 1755.56289,951.720469 C1755.56289,970.351656 1749.76781,986.57246 1738.17748,1000.38337 C1726.58715,1014.19428 1708.76864,1021.09963 1684.72141,1021.09963 L1609.65543,1021.09963 L1609.65543,1122 L1577.32182,1122 L1577.32182,883.316191 Z M1703.40666,916.137246 C1696.25748,912.7793 1686.45459,911.100352 1673.9977,911.100352 L1609.65543,911.100352 L1609.65543,993.80291 L1673.9977,993.80291 C1688.51269,993.80291 1700.29241,990.715812 1709.3372,984.541523 C1718.38199,978.367235 1722.90432,967.481152 1722.90432,951.882949 C1722.90432,934.334971 1716.40516,922.419856 1703.40666,916.137246 Z M1799.27014,883.316191 L1973.28672,883.316191 L1973.28672,912.562676 L1830.79135,912.562676 L1830.79135,985.028965 L1962.56301,985.028965 L1962.56301,1012.65064 L1830.79135,1012.65064 L1830.79135,1093.56592 L1975.72393,1093.56592 L1975.72393,1122 L1799.27014,1122 L1799.27014,883.316191 Z" id="DESCULPE" fill="#F78E25"></path>
                </g>
            </g>
        </g>
    </g>
</svg>